<svg xmlns="http://www.w3.org/2000/svg" viewBox="0 0 500 500"><g id="freepik--background-simple--inject-1--inject-10"><path d="M417.29,209.08c7-24.69,12-48-7.15-72.57-23.87-30.65-59-31.19-95.14-22.52-39.34,9.45-78,24.94-117.6,7-14.84-6.73-27.92-17-43.73-21.4C109,87.25,73.46,127.37,63.33,163.83A130.93,130.93,0,0,0,63.21,233c5.53,20.35,25.7,33.84,29.62,54.35,5.12,26.78-24,54.14,6.55,76,11.55,8.27,27.05,10.54,41.44,8.66,32.92-4.29,60.36-25.36,89.79-38.09,29.26-12.66,62.76-19.77,92.77-5.21,17.67,8.57,42.72,21.8,62.75,12.1,21.06-10.19,33.31-32.9,30.67-54.47-2.1-17.26-10.14-35.21-6.15-52.7C412.56,225.21,415,217.07,417.29,209.08Z" style="fill:#F44343"></path><path d="M417.29,209.08c7-24.69,12-48-7.15-72.57-23.87-30.65-59-31.19-95.14-22.52-39.34,9.45-78,24.94-117.6,7-14.84-6.73-27.92-17-43.73-21.4C109,87.25,73.46,127.37,63.33,163.83A130.93,130.93,0,0,0,63.21,233c5.53,20.35,25.7,33.84,29.62,54.35,5.12,26.78-24,54.14,6.55,76,11.55,8.27,27.05,10.54,41.44,8.66,32.92-4.29,60.36-25.36,89.79-38.09,29.26-12.66,62.76-19.77,92.77-5.21,17.67,8.57,42.72,21.8,62.75,12.1,21.06-10.19,33.31-32.9,30.67-54.47-2.1-17.26-10.14-35.21-6.15-52.7C412.56,225.21,415,217.07,417.29,209.08Z" style="fill:#fff;opacity:0.5"></path></g><g id="freepik--Shadow--inject-1--inject-10"><ellipse cx="259.33" cy="383.43" rx="159.39" ry="12.57" style="fill:#F44343"></ellipse><ellipse cx="259.33" cy="383.43" rx="159.39" ry="12.57" style="fill:#fff;opacity:0.30000000000000004"></ellipse><rect x="74" y="404.67" width="356" height="11.33" style="fill:#F44343"></rect><rect x="74" y="404.67" width="356" height="11.33" style="fill:#fff;opacity:0.5"></rect></g><g id="freepik--Plants--inject-1--inject-10"><path d="M96.09,327.29a16.36,16.36,0,0,0,3.36-3.46,4.8,4.8,0,0,0,.4-4,2.29,2.29,0,0,0-3.25-1c-1.64,1-1.82,4.51-1.4,6.18C95.24,325.11,96.07,327.31,96.09,327.29Z" style="fill:#2e353a"></path><path d="M71.41,344.85c.11.1,2,1.48,2,1.45s1.06-3.23.89-4.74A4.78,4.78,0,0,0,72.45,338a2.29,2.29,0,0,0-3.28.92C68.36,340.68,70.14,343.68,71.41,344.85Z" style="fill:#2e353a"></path><path d="M127.35,330.48s-9.77,10.09-9.72,22.48,9.91,22.4,9.91,22.4,9.77-10.09,9.72-22.48S127.35,330.48,127.35,330.48Z" style="fill:#2e353a"></path><path d="M113.41,360.38a4.37,4.37,0,0,0,.36-.44,4.79,4.79,0,0,0,.86-3.94,2.29,2.29,0,0,0-3.11-1.4c-1.32.62-2,2.75-2.11,4.49-.53-.12-1-.21-1.42-.28-.17-.4-.35-.79-.53-1.19s-.33-.83-.5-1.25c-.23-.62-.44-1.27-.65-1.92a14.7,14.7,0,0,0,3.86-2.32,4.8,4.8,0,0,0,1.45-3.76,2.29,2.29,0,0,0-2.86-1.86c-1.85.55-2.94,3.86-3,5.59,0,.06,0,.42.06.86-.18-.64-.37-1.28-.54-1.93-.48-1.86-.9-3.76-1.34-5.67-.09-.4-.19-.79-.28-1.19a15.37,15.37,0,0,0,4-2.38A4.77,4.77,0,0,0,109.1,338a2.28,2.28,0,0,0-2.85-1.86c-1.86.55-3,3.87-3,5.6,0,.06,0,.5.08,1-.25-1-.51-2.05-.81-3.06a41,41,0,0,0-1.82-5.1,15.83,15.83,0,0,0,4.1-2.43,4.77,4.77,0,0,0,1.45-3.76,2.29,2.29,0,0,0-2.86-1.86c-1.85.55-2.94,3.87-3,5.59,0,.13.14,1.71.21,2.27l0-.06a30.44,30.44,0,0,0-2.66-4.6A41.49,41.49,0,0,0,95,326c-1-1.11-1.91-2.06-2.76-2.9-.46-.45-.89-.86-1.3-1.23h0s-.9-2.16-1-2.29c-.87-1.5-3.43-3.88-5.32-3.47a2.29,2.29,0,0,0-1.6,3,4.78,4.78,0,0,0,3.08,2.6,15.37,15.37,0,0,0,4.66.16c.41.4.85.82,1.32,1.31.83.85,1.76,1.83,2.69,2.95.25.3.51.63.76,1-.54-.44-1.29-1.05-1.37-1.1-1.46-.92-4.82-1.86-6.31-.62a2.3,2.3,0,0,0,0,3.41,4.82,4.82,0,0,0,3.93.88,15,15,0,0,0,4.23-2c.56.72,1.11,1.46,1.64,2.27a29.18,29.18,0,0,1,2.52,4.6c0,.09.07.19.11.28-.23-.26-1.58-1.64-1.69-1.72-1.35-1.08-4.59-2.38-6.2-1.32a2.3,2.3,0,0,0-.42,3.39,4.82,4.82,0,0,0,3.81,1.31,16.21,16.21,0,0,0,4.53-1.59,40,40,0,0,1,1.65,5c.34,1.25.62,2.53.9,3.82-.31-.34-1.57-1.62-1.67-1.7-1.35-1.08-4.59-2.38-6.21-1.32a2.3,2.3,0,0,0-.41,3.39,4.77,4.77,0,0,0,3.81,1.31,15.83,15.83,0,0,0,4.5-1.58c.13.59.25,1.17.37,1.76.4,1.91.79,3.83,1.23,5.71.15.65.32,1.29.5,1.93-.48-.5-1.36-1.38-1.44-1.45-1.35-1.08-4.59-2.38-6.21-1.31a2.29,2.29,0,0,0-.41,3.38,4.77,4.77,0,0,0,3.81,1.31,15.38,15.38,0,0,0,4.36-1.5q.44,1.59,1,3.12c.17.43.31.89.49,1.3l.27.65-.37,0s0,.61,0,1.59c-1.42-1-3.47-1.89-4.81-1.27a2.3,2.3,0,0,0-.92,3.28,3.91,3.91,0,0,0,.3.41,8.85,8.85,0,0,0,1.84,4.09c.07.09,1,1,1.54,1.42l-1.47-.8c-.73-.41-1.48-.86-2.21-1.29-.38-.23-.75-.47-1.13-.72s-.73-.5-1.1-.76c-.54-.39-1.07-.81-1.61-1.24a14.4,14.4,0,0,0,1.94-4.07,4.74,4.74,0,0,0-.87-3.93,2.28,2.28,0,0,0-3.4,0c-1.25,1.48-.33,4.85.59,6.31,0,.05.26.34.53.68-.51-.43-1-.86-1.52-1.31-1.42-1.28-2.83-2.64-4.24-4l-.89-.83a15.23,15.23,0,0,0,2-4.18,4.79,4.79,0,0,0-.86-3.94,2.3,2.3,0,0,0-3.41,0c-1.24,1.48-.32,4.85.6,6.31,0,.05.3.4.61.78-.78-.72-1.57-1.43-2.37-2.11a40.65,40.65,0,0,0-4.33-3.24,16.28,16.28,0,0,0,2.08-4.3,4.81,4.81,0,0,0-.87-3.93,2.29,2.29,0,0,0-3.41,0c-1.24,1.48-.32,4.85.6,6.31.07.11,1.06,1.35,1.43,1.78l-.06,0a30.47,30.47,0,0,0-4.75-2.37,41.57,41.57,0,0,0-4.51-1.49c-1.41-.39-2.73-.67-3.9-.9l-1.76-.31,0,0s-2-1.3-2.08-1.37c-1.55-.77-5-1.34-6.34,0a2.28,2.28,0,0,0,.32,3.39,4.76,4.76,0,0,0,4,.47,15.45,15.45,0,0,0,4-2.43c.56.1,1.16.21,1.82.35,1.16.26,2.47.56,3.87,1,.38.11.78.25,1.16.37l-1.74-.16c-1.73,0-5,1.11-5.61,3a2.28,2.28,0,0,0,1.84,2.86,4.79,4.79,0,0,0,3.77-1.43,15.58,15.58,0,0,0,2.42-4c.85.29,1.72.6,2.61,1a29.1,29.1,0,0,1,4.64,2.43l.25.18c-.34-.09-2.23-.49-2.36-.5-1.72-.16-5.14.55-5.9,2.33a2.27,2.27,0,0,0,1.52,3,4.78,4.78,0,0,0,3.9-1,16.4,16.4,0,0,0,2.9-3.82,40.67,40.67,0,0,1,4.12,3.22c1,.86,1.91,1.77,2.85,2.69-.44-.12-2.2-.48-2.33-.49-1.72-.16-5.14.54-5.9,2.32a2.29,2.29,0,0,0,1.52,3.05,4.78,4.78,0,0,0,3.9-1,16.15,16.15,0,0,0,2.89-3.79l1.27,1.25c1.39,1.38,2.77,2.77,4.18,4.09.48.46,1,.9,1.48,1.34-.67-.15-1.89-.41-2-.42-1.72-.16-5.14.55-5.9,2.33a2.29,2.29,0,0,0,1.52,3.05,4.78,4.78,0,0,0,3.9-1,14.52,14.52,0,0,0,2.8-3.66c.84.73,1.68,1.43,2.53,2.07.38.28.75.58,1.12.82l1.12.74c.77.48,1.49.93,2.23,1.36l1.08.63c-.65-.26-1.7-.65-1.79-.67-1.68-.42-5.17-.24-6.19,1.4a2.29,2.29,0,0,0,1,3.25,4.77,4.77,0,0,0,4-.41,15.61,15.61,0,0,0,3.41-3.3c.89.51,1.76,1,2.58,1.43,2.2,1.18,4.11,2.11,5.6,2.81,4.82,4.17,11.62,4.63,11.62,4.63s.35-8.13-4.44-13.49A16.71,16.71,0,0,0,113.41,360.38Zm-8.61,7.94a17,17,0,0,0,1.38-4.38l.8-.17a19.06,19.06,0,0,0,3,7.17c-.88-.42-1.83-.88-2.84-1.4C106.39,369.17,105.6,368.75,104.8,368.32Z" style="fill:#2e353a"></path><path d="M149,358.83s-8.14.25-13.12,5.42S131,377.57,131,377.57s8.14-.25,13.12-5.42S149,358.83,149,358.83Z" style="fill:#2e353a"></path><polygon points="127.75 364.07 135.75 356.88 135.4 356.5 127.75 363.38 127.71 353.96 127.75 353.99 134.51 344.1 134.09 343.81 127.7 353.15 127.6 330.48 127.09 330.48 127.16 345.87 122.07 341.46 121.73 341.85 127.16 346.55 127.21 357.55 119.49 350.73 119.15 351.11 127.21 358.24 127.25 368.25 121.46 363.7 121.14 364.11 127.26 368.91 127.28 375.36 127.8 375.35 127.75 364.07 127.75 364.07" style="fill:#fff"></polygon><polygon points="120.39 366.84 119.88 366.79 119.23 372.48 115.8 368.64 115.8 368.64 114.93 361.75 114.42 361.82 115.2 367.98 106.67 358.44 106.29 358.78 112.08 365.25 108.41 365.3 108.42 365.81 112.53 365.76 116.59 370.3 110.86 370.31 110.86 370.82 117.05 370.81 120.74 374.94 116.7 375.18 116.73 375.69 121.18 375.43 123.64 378.17 124.02 377.83 119.69 372.99 120.39 366.84" style="fill:#fff"></polygon><polygon points="139.7 368.87 146.51 367.49 146.41 366.99 140.32 368.23 149.2 359 148.83 358.65 142.8 364.91 142.49 361.25 141.98 361.3 142.33 365.4 138.11 369.78 137.68 364.07 137.16 364.11 137.63 370.28 133.79 374.27 133.25 370.25 132.74 370.32 133.34 374.74 130.78 377.39 131.15 377.75 135.66 373.07 141.84 373.31 141.86 372.8 136.13 372.58 139.7 368.87 139.7 368.87" style="fill:#fff"></polygon><path d="M404.93,327.29a16.64,16.64,0,0,1-3.35-3.46,4.8,4.8,0,0,1-.4-4,2.28,2.28,0,0,1,3.24-1c1.65,1,1.82,4.51,1.41,6.18C405.79,325.11,405,327.31,404.93,327.29Z" style="fill:#2e353a"></path><path d="M429.62,344.85c-.11.1-2,1.48-2,1.45s-1.06-3.23-.89-4.74a4.78,4.78,0,0,1,1.88-3.56,2.29,2.29,0,0,1,3.28.92C432.67,340.68,430.89,343.68,429.62,344.85Z" style="fill:#2e353a"></path><path d="M373.68,330.48s9.77,10.09,9.72,22.48-9.91,22.4-9.91,22.4-9.78-10.09-9.72-22.48S373.68,330.48,373.68,330.48Z" style="fill:#2e353a"></path><path d="M387.61,360.38a4.2,4.2,0,0,1-.35-.44,4.79,4.79,0,0,1-.86-3.94,2.28,2.28,0,0,1,3.1-1.4c1.33.62,2,2.75,2.12,4.49.53-.12,1-.21,1.42-.28.17-.4.35-.79.53-1.19s.33-.83.5-1.25c.23-.62.44-1.27.65-1.92a14.7,14.7,0,0,1-3.86-2.32,4.8,4.8,0,0,1-1.45-3.76,2.29,2.29,0,0,1,2.86-1.86c1.85.55,2.94,3.86,3,5.59,0,.06,0,.42-.07.86.19-.64.38-1.28.55-1.93.48-1.86.9-3.76,1.34-5.67.09-.4.19-.79.28-1.19a15.37,15.37,0,0,1-4-2.38,4.81,4.81,0,0,1-1.45-3.76,2.3,2.3,0,0,1,2.86-1.86c1.86.55,3,3.87,3,5.6,0,.06,0,.5-.09,1,.26-1,.52-2.05.82-3.06a41,41,0,0,1,1.82-5.1,15.83,15.83,0,0,1-4.1-2.43,4.77,4.77,0,0,1-1.45-3.76,2.29,2.29,0,0,1,2.85-1.86c1.86.55,2.95,3.87,3,5.59,0,.13-.14,1.71-.21,2.27,0,0,0,0,0-.06a29.61,29.61,0,0,1,2.66-4.6A41.49,41.49,0,0,1,406,326c1-1.11,1.91-2.06,2.76-2.9.46-.45.89-.86,1.3-1.23H410s.91-2.16,1-2.29c.87-1.5,3.42-3.88,5.32-3.47a2.3,2.3,0,0,1,1.6,3,4.78,4.78,0,0,1-3.08,2.6,15.37,15.37,0,0,1-4.66.16c-.41.4-.85.82-1.33,1.31-.82.85-1.75,1.83-2.68,2.95-.25.3-.51.63-.76,1,.54-.44,1.29-1.05,1.37-1.1,1.45-.92,4.82-1.86,6.31-.62a2.3,2.3,0,0,1,0,3.41,4.82,4.82,0,0,1-3.93.88,15.26,15.26,0,0,1-4.24-2c-.55.72-1.1,1.46-1.63,2.27a30,30,0,0,0-2.53,4.6c0,.09-.07.19-.1.28.22-.26,1.58-1.64,1.69-1.72,1.35-1.08,4.59-2.38,6.2-1.32a2.3,2.3,0,0,1,.42,3.39,4.82,4.82,0,0,1-3.81,1.31,16.21,16.21,0,0,1-4.53-1.59,40,40,0,0,0-1.65,5c-.34,1.25-.62,2.53-.9,3.82.31-.34,1.57-1.62,1.67-1.7,1.35-1.08,4.59-2.38,6.21-1.32a2.3,2.3,0,0,1,.41,3.39,4.77,4.77,0,0,1-3.81,1.31,15.71,15.71,0,0,1-4.5-1.58c-.13.59-.25,1.17-.38,1.76-.39,1.91-.78,3.83-1.22,5.71-.15.65-.33,1.29-.5,1.93.48-.5,1.36-1.38,1.44-1.45,1.35-1.08,4.59-2.38,6.2-1.31a2.29,2.29,0,0,1,.42,3.38,4.78,4.78,0,0,1-3.81,1.31,15.38,15.38,0,0,1-4.36-1.5c-.29,1.06-.61,2.1-1,3.12-.16.43-.3.89-.48,1.3l-.27.65.37,0s0,.61,0,1.59c1.42-1,3.47-1.89,4.8-1.27a2.29,2.29,0,0,1,.93,3.28,3.91,3.91,0,0,1-.3.41,8.85,8.85,0,0,1-1.84,4.09c-.07.09-1,1-1.54,1.42l1.47-.8c.73-.41,1.48-.86,2.21-1.29.38-.23.75-.47,1.13-.72s.73-.5,1.1-.76c.54-.39,1.07-.81,1.61-1.24a14.4,14.4,0,0,1-1.94-4.07,4.77,4.77,0,0,1,.86-3.93,2.29,2.29,0,0,1,3.41,0c1.25,1.48.33,4.85-.59,6.31,0,.05-.26.34-.53.68.51-.43,1-.86,1.52-1.31,1.42-1.28,2.83-2.64,4.24-4l.89-.83a15.51,15.51,0,0,1-2-4.18,4.83,4.83,0,0,1,.87-3.94,2.3,2.3,0,0,1,3.41,0c1.24,1.48.32,4.85-.6,6.31,0,.05-.3.4-.61.78.78-.72,1.57-1.43,2.37-2.11a40.65,40.65,0,0,1,4.33-3.24,16,16,0,0,1-2.08-4.3,4.78,4.78,0,0,1,.87-3.93,2.29,2.29,0,0,1,3.41,0c1.24,1.48.32,4.85-.6,6.31-.07.11-1.06,1.35-1.43,1.78l.06,0a30.47,30.47,0,0,1,4.75-2.37,40.87,40.87,0,0,1,4.51-1.49c1.41-.39,2.73-.67,3.9-.9l1.76-.31,0,0s1.95-1.3,2.08-1.37c1.55-.77,5-1.34,6.34,0a2.29,2.29,0,0,1-.32,3.39,4.76,4.76,0,0,1-4,.47,15.45,15.45,0,0,1-4-2.43c-.56.1-1.16.21-1.82.35-1.17.26-2.47.56-3.88,1l-1.15.37,1.74-.16c1.73,0,5.05,1.11,5.61,3a2.28,2.28,0,0,1-1.85,2.86,4.79,4.79,0,0,1-3.76-1.43,15.58,15.58,0,0,1-2.42-4c-.85.29-1.72.6-2.61,1a28.68,28.68,0,0,0-4.64,2.43l-.25.18c.34-.09,2.23-.49,2.36-.5,1.72-.16,5.14.55,5.9,2.33a2.27,2.27,0,0,1-1.52,3,4.78,4.78,0,0,1-3.9-1,16.4,16.4,0,0,1-2.9-3.82,40.67,40.67,0,0,0-4.12,3.22c-1,.86-1.91,1.77-2.85,2.69.44-.12,2.2-.48,2.33-.49,1.72-.16,5.14.54,5.9,2.32a2.29,2.29,0,0,1-1.52,3.05,4.78,4.78,0,0,1-3.9-1,16.15,16.15,0,0,1-2.89-3.79l-1.27,1.25c-1.39,1.38-2.77,2.77-4.18,4.09-.49.46-1,.9-1.48,1.34.67-.15,1.89-.41,2-.42,1.72-.16,5.14.55,5.9,2.33a2.29,2.29,0,0,1-1.52,3.05,4.78,4.78,0,0,1-3.9-1,14.83,14.83,0,0,1-2.81-3.66c-.83.73-1.67,1.43-2.53,2.07-.37.28-.74.58-1.12.82l-1.11.74c-.77.48-1.49.93-2.23,1.36l-1.08.63c.65-.26,1.69-.65,1.79-.67,1.68-.42,5.17-.24,6.19,1.4a2.3,2.3,0,0,1-1,3.25,4.77,4.77,0,0,1-4-.41,16,16,0,0,1-3.42-3.3c-.88.51-1.75,1-2.58,1.43-2.19,1.18-4.1,2.11-5.59,2.81C384,377.54,377.2,378,377.2,378s-.36-8.13,4.43-13.49A16.88,16.88,0,0,1,387.61,360.38Zm8.62,7.94a17,17,0,0,1-1.38-4.38l-.8-.17a19.06,19.06,0,0,1-3,7.17c.88-.42,1.83-.88,2.83-1.4C394.64,369.17,395.43,368.75,396.23,368.32Z" style="fill:#2e353a"></path><path d="M352,358.83s8.14.25,13.12,5.42,4.92,13.32,4.92,13.32-8.14-.25-13.12-5.42S352,358.83,352,358.83Z" style="fill:#2e353a"></path><polygon points="373.28 364.07 365.28 356.88 365.63 356.5 373.28 363.38 373.32 353.96 373.28 353.99 366.52 344.1 366.94 343.81 373.33 353.15 373.42 330.48 373.94 330.48 373.87 345.87 378.96 341.46 379.3 341.85 373.87 346.55 373.82 357.55 381.54 350.73 381.88 351.11 373.82 358.24 373.77 368.25 379.57 363.7 379.89 364.11 373.77 368.91 373.74 375.36 373.23 375.35 373.28 364.07 373.28 364.07" style="fill:#fff"></polygon><polygon points="380.64 366.84 381.15 366.79 381.8 372.48 385.23 368.64 385.23 368.64 386.1 361.75 386.6 361.82 385.83 367.98 394.36 358.44 394.74 358.78 388.95 365.25 392.62 365.3 392.61 365.81 388.5 365.76 384.44 370.3 390.17 370.31 390.17 370.82 383.98 370.81 380.29 374.94 384.33 375.18 384.3 375.69 379.85 375.43 377.39 378.17 377.01 377.83 381.34 372.99 380.64 366.84" style="fill:#fff"></polygon><polygon points="361.32 368.87 354.52 367.49 354.62 366.99 360.71 368.23 351.83 359 352.2 358.65 358.22 364.91 358.54 361.25 359.05 361.3 358.7 365.4 362.92 369.78 363.35 364.07 363.87 364.11 363.4 370.28 367.24 374.27 367.78 370.25 368.29 370.32 367.69 374.74 370.25 377.39 369.88 377.75 365.37 373.07 359.19 373.31 359.17 372.8 364.9 372.58 361.33 368.87 361.32 368.87" style="fill:#fff"></polygon></g><g id="freepik--bus-stop--inject-1--inject-10"><path d="M327,140.68a28,28,0,0,1-17.87-6.41c-5.8-4.82-7.73-10.78-9.77-17.1-3.45-10.68-13.3-18.13-24-18.13A25.4,25.4,0,0,0,257,107.28c-2.56,2.86-4,6.53-5.55,10.41s-3.21,8.08-6.16,11.58a32.32,32.32,0,0,1-24.76,11.41,33.27,33.27,0,0,1-21.68-8c-5.09-4.37-7.69-10.39-10.12-16.69-2.76-7.15-6.18-14.46-12.56-19.54a33.62,33.62,0,0,0-20.82-7.41c-19.1,0-34.64,21.31-34.64,41.62h-4.77c0-23.11,17.68-46.69,39.41-46.69A38.19,38.19,0,0,1,179,92.43c7.3,5.8,11.1,13.84,14.11,21.66,2.19,5.67,4.5,11.06,8.71,14.68a28.66,28.66,0,0,0,18.68,6.84,27.65,27.65,0,0,0,21.21-9.73c2.41-2.86,3.82-6.41,5.31-10.16,1.64-4.13,3.33-8.4,6.49-11.93A29.75,29.75,0,0,1,275.41,94c12.67,0,24.38,8.86,28.47,21.55,2,6.07,3.51,10.86,8.2,14.76A23.39,23.39,0,0,0,327,135.61a23.11,23.11,0,0,0,13.71-4.67c3.32-2.48,5.31-6.15,7.42-10,1.88-3.47,3.83-7.06,6.84-10a25.11,25.11,0,0,1,17.15-7.17c14,0,25.43,12.12,25.43,27h-4.77c0-12.11-9.27-22-20.66-22a20.45,20.45,0,0,0-13.94,5.86c-2.46,2.37-4.14,5.47-5.92,8.74-2.27,4.19-4.62,8.52-8.8,11.65A27.72,27.72,0,0,1,327,140.68Z" style="fill:#F44343;stroke:#2e353a;stroke-linecap:round;stroke-linejoin:round"></path><polygon points="120.71 130.69 127.03 145.77 122.48 145.77 115.94 130.69 120.71 130.69" style="fill:#F44343;stroke:#2e353a;stroke-linecap:round;stroke-linejoin:round"></polygon><path d="M372.13,108.84a20.45,20.45,0,0,0-13.94,5.86c-2.46,2.37-4.14,5.47-5.92,8.74-2.27,4.19-4.62,8.52-8.8,11.65a27.59,27.59,0,0,1-34.33-.82c-5.8-4.82-7.73-10.78-9.77-17.1-3.45-10.68-13.3-18.13-24-18.13A25.4,25.4,0,0,0,257,107.28c-2.56,2.86-4,6.53-5.55,10.41s-3.21,8.08-6.16,11.58a32.32,32.32,0,0,1-24.76,11.41,33.27,33.27,0,0,1-21.68-8c-5.09-4.37-7.69-10.39-10.12-16.69-2.76-7.15-6.18-14.46-12.56-19.54a33.62,33.62,0,0,0-20.82-7.41c-19.1,0-34.64,21.31-34.64,41.62L127,145.77c0-19.36,14.82-39.9,33-39.9a32.08,32.08,0,0,1,19.85,7.06c6.08,4.84,9.35,11.81,12,18.63,2.31,6,4.79,11.75,9.65,15.92a31.73,31.73,0,0,0,20.67,7.6,30.79,30.79,0,0,0,23.61-10.89c2.81-3.33,4.37-7.25,5.87-11s2.86-7.19,5.3-9.92a24.18,24.18,0,0,1,17.55-7.86c10.17,0,19.57,7.11,22.85,17.29,1.95,6,3.78,11.71,9.32,16.31a26.72,26.72,0,0,0,17,6.11,26.42,26.42,0,0,0,15.69-5.33c4-3,6.23-7.11,8.39-11.11,1.7-3.12,3.3-6.08,5.65-8.33a19.44,19.44,0,0,1,13.3-5.59c10.86,0,19.7,9.39,19.7,20.94l7.58-14.86h-1.27C392.79,118.69,383.52,108.84,372.13,108.84Z" style="fill:#2e353a;stroke:#2e353a;stroke-linecap:round;stroke-linejoin:round"></path><polygon points="391.02 145.66 397.56 130.8 392.79 130.8 386.48 145.66 391.02 145.66" style="fill:#F44343;stroke:#2e353a;stroke-linecap:round;stroke-linejoin:round"></polygon><rect x="134.57" y="146.64" width="243.33" height="229.08" style="fill:#F44343;stroke:#2e353a;stroke-linecap:round;stroke-linejoin:round"></rect><rect x="134.57" y="146.64" width="243.33" height="229.08" style="opacity:0.30000000000000004"></rect><rect x="252.47" y="146.64" width="7.53" height="229.08" style="fill:#2e353a;stroke:#2e353a;stroke-linecap:round;stroke-linejoin:round"></rect><rect x="152.37" y="330.49" width="5.92" height="54.1" style="fill:#fff;stroke:#2e353a;stroke-linecap:round;stroke-linejoin:round"></rect><rect x="254.23" y="330.49" width="5.92" height="54.1" style="fill:#fff;stroke:#2e353a;stroke-linecap:round;stroke-linejoin:round"></rect><rect x="357.78" y="330.49" width="5.92" height="54.1" style="fill:#fff;stroke:#2e353a;stroke-linecap:round;stroke-linejoin:round"></rect><rect x="148.45" y="327.53" width="217.47" height="7.73" style="fill:#fff;stroke:#2e353a;stroke-linecap:round;stroke-linejoin:round"></rect><polygon points="365.81 327.53 148.56 327.53 161.6 320.35 352.77 320.35 365.81 327.53" style="fill:#2e353a;stroke:#2e353a;stroke-linecap:round;stroke-linejoin:round"></polygon><rect x="134.57" y="150.02" width="9.2" height="229.08" style="fill:#2e353a;stroke:#2e353a;stroke-linecap:round;stroke-linejoin:round"></rect><rect x="124.5" y="150.02" width="9.2" height="237.53" style="fill:#fff;stroke:#2e353a;stroke-linecap:round;stroke-linejoin:round"></rect><rect x="380.56" y="150.02" width="9.2" height="237.53" style="fill:#fff;stroke:#2e353a;stroke-linecap:round;stroke-linejoin:round"></rect><line x1="424.13" y1="404.67" x2="430" y2="404.67" style="fill:none;stroke:#2e353a;stroke-linecap:round;stroke-linejoin:round"></line><line x1="404.68" y1="404.67" x2="421.8" y2="404.67" style="fill:none;stroke:#2e353a;stroke-linecap:round;stroke-linejoin:round"></line><line x1="102.02" y1="404.67" x2="400.4" y2="404.67" style="fill:none;stroke:#2e353a;stroke-linecap:round;stroke-linejoin:round"></line><line x1="72" y1="404.67" x2="95.79" y2="404.67" style="fill:none;stroke:#2e353a;stroke-linecap:round;stroke-linejoin:round"></line><line x1="423.74" y1="416" x2="430" y2="416" style="fill:none;stroke:#2e353a;stroke-linecap:round;stroke-linejoin:round"></line><line x1="121.86" y1="416" x2="419.46" y2="416" style="fill:none;stroke:#2e353a;stroke-linecap:round;stroke-linejoin:round"></line><line x1="72" y1="416" x2="116.02" y2="416" style="fill:none;stroke:#2e353a;stroke-linecap:round;stroke-linejoin:round"></line><rect x="370.49" y="150.02" width="9.2" height="229.08" style="fill:#2e353a;stroke:#2e353a;stroke-linecap:round;stroke-linejoin:round"></rect><rect x="120.98" y="145.1" width="270.9" height="15.78" style="fill:#fff;stroke:#2e353a;stroke-linecap:round;stroke-linejoin:round"></rect><polygon points="98.57 393.06 95.39 395.67 95.39 183.12 98.57 183.12 98.57 393.06" style="fill:#2e353a;stroke:#2e353a;stroke-linecap:round;stroke-linejoin:round"></polygon><polygon points="104.24 194.51 89.73 194.51 89.73 127.24 104.24 131.15 104.24 194.51" style="fill:#2e353a;stroke:#2e353a;stroke-linecap:round;stroke-linejoin:round"></polygon><polygon points="102.83 187.96 91.14 187.96 91.14 133.79 102.83 136.43 102.83 187.96" style="fill:#F44343;stroke:#2e353a;stroke-linecap:round;stroke-linejoin:round"></polygon></g><g id="freepik--Character--inject-1--inject-10"><path d="M172.74,258.36s0-5,0-5,0,5,0,5Z" style="fill:#2e353a"></path><path d="M287,252.35a7.52,7.52,0,0,1,3.9,5.87c.54,4.33,9.79,33.3,9.79,35.47s-4.41,5.45-8.21,5.45-6.32-13.37-6.32-13.37Z" style="fill:#fff;stroke:#2e353a;stroke-linecap:round;stroke-linejoin:round"></path><polyline points="289.17 263.15 286.59 270.03 290.89 266.59" style="fill:none;stroke:#2e353a;stroke-linecap:round;stroke-linejoin:round;stroke-width:0.5px"></polyline><path d="M237.29,252.3s-4.6,2.11-5.32,6.09S224,296.07,224.4,297.7s10.66,4.33,12.28,3.61S239,282.52,239,282.52Z" style="fill:#fff;stroke:#2e353a;stroke-linecap:round;stroke-linejoin:round"></path><line x1="238.63" y1="270.03" x2="234.33" y2="261" style="fill:none;stroke:#2e353a;stroke-linecap:round;stroke-linejoin:round;stroke-width:0.5px"></line><line x1="237.99" y1="271.11" x2="232.61" y2="265.73" style="fill:none;stroke:#2e353a;stroke-linecap:round;stroke-linejoin:round;stroke-width:0.5px"></line><path d="M253.82,246.12s-15.82,5-16.53,6.18,3.65,46,3.65,48.87,1.13,5.09,5.38,6.36,23.63,1,28.3.57,9.76-3.68,10.19-6.65,2.27-46.39,2.69-48.47c.18-.92-3.46-2.41-7.2-3.91-3.23-1.29-11.06-4.64-14-4.64S259.34,243.58,253.82,246.12Z" style="fill:#fff;stroke:#2e353a;stroke-linecap:round;stroke-linejoin:round"></path><path d="M264,295a18.92,18.92,0,0,0-.65,3.87c0,1.51,3.44,1.08,3.44,3.23s-3.87,4.08-3.87,4.08" style="fill:none;stroke:#2e353a;stroke-linecap:round;stroke-linejoin:round;stroke-width:0.5px"></path><path d="M252.36,295.76s4.5,5.31,20,2.66" style="fill:none;stroke:#2e353a;stroke-linecap:round;stroke-linejoin:round;stroke-width:0.5px"></path><path d="M256.65,242.87s-3.68,1-4.39,2.4.43,3.4.57,5-2,7.64-2,7.64,4.24-.14,5,.42,7.92,5.52,7.92,5.52,2.41-5.94,5.24-6.79,5.38-1.7,5.38-1.7-3.4-4.81-4.53-8.63S261.46,240.18,256.65,242.87Z" style="fill:#2e353a;stroke:#2e353a;stroke-linecap:round;stroke-linejoin:round"></path><path d="M255.09,240.18s2.55,11.18,2.69,18-4.1,21.79-2.12,26,7.36,8.49,7.78,8.49,4.39-7.36,4.67-12.6-3.82-18.82-2.55-24.76a97.83,97.83,0,0,0,1.56-14.15Z" style="fill:#fff;stroke:#2e353a;stroke-linecap:round;stroke-linejoin:round"></path><path d="M255.09,240.18s.53,2.33,1.12,5.51a13,13,0,0,0,7.06,1.73,8.94,8.94,0,0,0,3.51-.93c.26-3,.34-5.32.34-5.32Z" style="fill:#F44343;opacity:0.54;mix-blend-mode:multiply"></path><path d="M263.44,292.68c.43,0,4.39-7.36,4.67-12.6s-3.82-18.82-2.55-24.76q.19-.91.36-1.89a14.06,14.06,0,0,1-2.86.36,13,13,0,0,1-5.73-1.1,53.88,53.88,0,0,1,.45,5.46c.14,6.79-4.1,21.79-2.12,26S263,292.68,263.44,292.68Z" style="fill:#fff;stroke:#2e353a;stroke-linecap:round;stroke-linejoin:round"></path><path d="M289.52,295.41s26.2,18.81,26.41,20.92-11.83,15.43-16.27,15S280,304.71,280,304.71Z" style="fill:#F44343;stroke:#2e353a;stroke-linecap:round;stroke-linejoin:round"></path><polygon points="244.61 249.45 286.01 303.12 289.08 296.07 250.4 247.3 244.61 249.45" style="fill:#F44343;stroke:#2e353a;stroke-linecap:round;stroke-linejoin:round"></polygon><path d="M234.33,368.53l.37,8s-5.79,4-8.32,5.6-6.86,4.15-5.42,5.24,21,0,21,0,.54-.36.54-2.71-.36-12.83-.36-12.83Z" style="fill:#fff;stroke:#2e353a;stroke-linecap:round;stroke-linejoin:round"></path><path d="M242.46,384.61c0-.66,0-2-.07-3.51l-5.89.44s0-.73-.18-2.9-1.62-2.16-1.62-2.16-5.79,4-8.32,5.6-6.86,4.15-5.42,5.24,21,0,21,0S242.46,387,242.46,384.61Z" style="fill:#2e353a;stroke:#2e353a;stroke-linecap:round;stroke-linejoin:round"></path><path d="M220.87,386.23c-.26.43-.28.81.09,1.09,1.45,1.08,21,0,21,0s.26-.19.42-1.09Z" style="fill:#fff;stroke:#2e353a;stroke-linecap:round;stroke-linejoin:round"></path><path d="M285.83,368.53l-.36,8s5.78,4,8.31,5.6,6.86,4.15,5.42,5.24-21,0-21,0-.54-.36-.54-2.71.36-12.83.36-12.83Z" style="fill:#fff;stroke:#2e353a;stroke-linecap:round;stroke-linejoin:round"></path><path d="M277.7,384.61c0-.66,0-2,.07-3.51l5.89.44s0-.73.18-2.9,1.63-2.16,1.63-2.16,5.78,4,8.31,5.6,6.86,4.15,5.42,5.24-21,0-21,0S277.7,387,277.7,384.61Z" style="fill:#2e353a;stroke:#2e353a;stroke-linecap:round;stroke-linejoin:round"></path><path d="M299.29,386.23c.27.43.28.81-.09,1.09-1.45,1.08-21,0-21,0s-.26-.19-.42-1.09Z" style="fill:#fff;stroke:#2e353a;stroke-linecap:round;stroke-linejoin:round"></path><path d="M242.28,304.93s-12.1,3.79-16.44,6.86-2,9.58,2.53,13.73,11.2,6.87,16.08,4.7,10.3-7.05,17.53-7.05,13.55,5.61,20,7.95,15-5.24,16.63-11.56-2.44-13.38-12.47-12.65C264.93,308.46,260.47,310,242.28,304.93Z" style="fill:#2e353a;stroke:#2e353a;stroke-linecap:round;stroke-linejoin:round"></path><path d="M229.64,312.15s-6.15-1.8-7.95,4,3.07,38.66,4,45,.72,7.41.72,7.41,7.77,1.26,10.3,2.71,6.51,1.44,6.51,1.44-3.62-23.49-2.89-28.91,3.61-9.21,2.89-14.81-5.6-13-5.6-13" style="fill:#2e353a;stroke:#2e353a;stroke-linecap:round;stroke-linejoin:round"></path><path d="M290.79,312.15s6.14-1.8,7.95,4-3.08,38.66-4,45-.72,7.41-.72,7.41-7.77,1.26-10.3,2.71-6.51,1.44-6.51,1.44,3.62-23.49,2.9-28.91-3.62-9.21-2.9-14.81,5.61-13,5.61-13" style="fill:#2e353a;stroke:#2e353a;stroke-linecap:round;stroke-linejoin:round"></path><path d="M282.38,317.19a56.79,56.79,0,0,0-5,10.69,15.67,15.67,0,0,1,2.58-9.67" style="fill:none;stroke:#fff;stroke-linecap:round;stroke-linejoin:round;stroke-width:0.5px"></path><path d="M286.38,312.83a9.06,9.06,0,0,0-2.08,1.81" style="fill:none;stroke:#fff;stroke-linecap:round;stroke-linejoin:round;stroke-width:0.5px"></path><path d="M236.91,316.27s6,7.74,6.24,13.33" style="fill:none;stroke:#fff;stroke-linecap:round;stroke-linejoin:round;stroke-width:0.5px"></path><path d="M240.78,317.78c1.08,2.58,1.08,4.73,2.37,9.67" style="fill:none;stroke:#fff;stroke-linecap:round;stroke-linejoin:round;stroke-width:0.5px"></path><line x1="232.16" y1="363.74" x2="223.79" y2="337.35" style="fill:none;stroke:#fff;stroke-linecap:round;stroke-linejoin:round;stroke-width:0.5px"></line><line x1="233.47" y1="367.89" x2="232.63" y2="365.23" style="fill:none;stroke:#fff;stroke-linecap:round;stroke-linejoin:round;stroke-width:0.5px"></line><line x1="289.82" y1="362.65" x2="295.19" y2="347.02" style="fill:none;stroke:#fff;stroke-linecap:round;stroke-linejoin:round;stroke-width:0.5px"></line><line x1="288.1" y1="367.67" x2="289.09" y2="364.78" style="fill:none;stroke:#fff;stroke-linecap:round;stroke-linejoin:round;stroke-width:0.5px"></line><path d="M245.05,218l2.68,11.6s-3.11-2-3.11.85,1.28,4.38,3,5a6.15,6.15,0,0,0,3.26.14,14.48,14.48,0,0,0,3.39,4.53,13.31,13.31,0,0,0,9.2,3.39c3.25,0,7.5-3.25,8.63-7.07s-2.55-11-3.11-15.85,4.1-4.67,2-8.63-13.44-4.67-20.38-3S245.05,218,245.05,218Z" style="fill:#fff;stroke:#2e353a;stroke-linecap:round;stroke-linejoin:round"></path><path d="M267.54,222.35a2.42,2.42,0,0,0-1.84,3.26,6.37,6.37,0,0,0,2.27,3.82s.71,2.12-2.55,1.84" style="fill:none;stroke:#2e353a;stroke-linecap:round;stroke-linejoin:round"></path><path d="M261.57,223.37a4.59,4.59,0,0,0-5.13,1.62" style="fill:none;stroke:#2e353a;stroke-linecap:round;stroke-linejoin:round"></path><path d="M261.59,227.45c.13.61,0,1.16-.38,1.24s-.73-.35-.87-1,0-1.17.37-1.25S261.45,226.84,261.59,227.45Z" style="fill:#2e353a"></path><path d="M268.09,226c.14.61,0,1.17-.37,1.25s-.73-.36-.87-1,0-1.16.37-1.24S268,225.42,268.09,226Z" style="fill:#2e353a"></path><line x1="267.26" y1="234.95" x2="265.14" y2="235.23" style="fill:none;stroke:#2e353a;stroke-linecap:round;stroke-linejoin:round"></line><polygon points="250.05 305.83 252.58 308.72 248.61 311.79 246.26 309.8 250.05 305.83" style="fill:#2e353a;stroke:#2e353a;stroke-linecap:round;stroke-linejoin:round"></polygon><path d="M233.43,291.37s1.08-.54,3.61,1.09S251.5,304,250.6,306.19a6.72,6.72,0,0,1-5.43,4c-2.52.36-13.91-6.69-17-8.68s-4-2.89-3.79-3.79-.18-3.43,2-4.52" style="fill:#fff;stroke:#2e353a;stroke-linecap:round;stroke-linejoin:round"></path><polygon points="273.18 304.38 269.75 307.09 273.36 311.07 276.43 308.36 273.18 304.38" style="fill:#2e353a;stroke:#2e353a;stroke-linecap:round;stroke-linejoin:round"></polygon><path d="M291.79,289.93s-4.15,1.08-6.14,2.89a94,94,0,0,1-7.89,5.84c-1.63,1.18-3.77,2.15-5,3.84-1.62,2.31.1,3.6,1.77,5.26,4.05,4,8.95.52,12.77-1.75s8.08-4.42,11.32-7.41c2.35-2.17,2.89-5.78.18-8" style="fill:#fff;stroke:#2e353a;stroke-linecap:round;stroke-linejoin:round"></path><path d="M252.58,308.72a17.13,17.13,0,0,1,4.52,2.53c1.26,1.26,3.43,7.95,3.43,9.4s.18,2.89-.9,2.89-1.81-.91-2.35-.91-2.53-1.26-4.34-2.35-3.07-4.51-3.61-6.14-.72-2.35-.72-2.35Z" style="fill:#fff;stroke:#2e353a;stroke-linecap:round;stroke-linejoin:round"></path><line x1="256.08" y1="322" x2="253.2" y2="317.96" style="fill:none;stroke:#2e353a;stroke-linecap:round;stroke-linejoin:round;stroke-width:0.5px"></line><line x1="258.05" y1="322.92" x2="255.28" y2="317.15" style="fill:none;stroke:#2e353a;stroke-linecap:round;stroke-linejoin:round;stroke-width:0.5px"></line><line x1="260.01" y1="323.04" x2="257.47" y2="316.34" style="fill:none;stroke:#2e353a;stroke-linecap:round;stroke-linejoin:round;stroke-width:0.5px"></line><path d="M269.75,307.09a53.65,53.65,0,0,0-4.52,3.62c-1.26,1.26-3.43,8-3.43,9.39s-.18,2.89.9,2.89,1.81-.9,2.35-.9,2.53-1.26,4.34-2.35,3.07-4.52,3.61-6.14a5.48,5.48,0,0,0,.36-2.53Z" style="fill:#fff;stroke:#2e353a;stroke-linecap:round;stroke-linejoin:round"></path><line x1="262.7" y1="322.99" x2="265.32" y2="316.46" style="fill:none;stroke:#2e353a;stroke-linecap:round;stroke-linejoin:round;stroke-width:0.5px"></line><line x1="264.63" y1="322.23" x2="267.86" y2="316.23" style="fill:none;stroke:#2e353a;stroke-linecap:round;stroke-linejoin:round;stroke-width:0.5px"></line><line x1="267.51" y1="320.84" x2="269.7" y2="316.69" style="fill:none;stroke:#2e353a;stroke-linecap:round;stroke-linejoin:round;stroke-width:0.5px"></line><path d="M270.94,211.88c-2.12-4-13.44-4.67-20.38-3s-5.51,9.06-5.51,9.06l2.55,11,.7.87s1,.85,1.42-.14-1.42-3.54-.71-4.53,3.54,0,2.69-3.39-.85-5.52,3.11-6.94,8.77-2,10.89-.42,3.26,6.08,3.26,6.08C268.39,215.7,273.06,215.84,270.94,211.88Z" style="fill:#2e353a;stroke:#2e353a;stroke-linecap:round;stroke-linejoin:round"></path><path d="M246.07,217.19a11.94,11.94,0,0,0,3.74,0c2-.33,2.45-4.43,9.19-5.4s6.7,2.64,6.7,2.64,3.68-3.73,2.16-4.91-12.3-.91-16.86,2.91" style="fill:none;stroke:#fff;stroke-linecap:round;stroke-linejoin:round;stroke-width:0.5px"></path><path d="M311.28,319.15A14,14,0,0,1,310,320.5" style="fill:none;stroke:#2e353a;stroke-linecap:round;stroke-linejoin:round;stroke-width:0.5px"></path><path d="M300.83,306.39s12.06,8.18,11.86,10a3.06,3.06,0,0,1-.25.89" style="fill:none;stroke:#2e353a;stroke-linecap:round;stroke-linejoin:round;stroke-width:0.5px"></path></g></svg>